<svg width="28" height="29" viewBox="0 0 28 29" fill="none" xmlns="http://www.w3.org/2000/svg">
<path d="M8.16667 10.4167L11.599 12.446C13.6001 13.6291 14.3999 13.6291 16.401 12.446L19.8333 10.4167" stroke="#616161" stroke-width="1.75" stroke-linecap="round" stroke-linejoin="round"/>
<path d="M2.35172 16.2216C2.428 19.798 2.46612 21.5862 3.78578 22.9109C5.10543 24.2356 6.94205 24.2817 10.6153 24.374C12.8792 24.4309 15.1208 24.4309 17.3847 24.374C21.058 24.2817 22.8946 24.2356 24.2142 22.9109C25.5339 21.5862 25.5721 19.798 25.6482 16.2216C25.6729 15.0716 25.6729 13.9283 25.6482 12.7785C25.5721 9.20198 25.5339 7.41375 24.2142 6.08908C22.8946 4.76442 21.058 4.71827 17.3847 4.62598C15.1208 4.56909 12.8792 4.56909 10.6153 4.62597C6.94205 4.71825 5.10543 4.76439 3.78578 6.08907C2.46612 7.41374 2.42799 9.20197 2.35172 12.7784C2.3272 13.9283 2.3272 15.0716 2.35172 16.2216Z" stroke="#616161" stroke-width="1.75" stroke-linejoin="round"/>
</svg>
