<svg width="28" height="28" viewBox="0 0 28 28" fill="none" xmlns="http://www.w3.org/2000/svg">
<path d="M13.9997 11.4545V16.8764H21.5343C21.2034 18.62 20.2105 20.0964 18.7215 21.0891L23.2651 24.6146C25.9124 22.171 27.4397 18.5819 27.4397 14.3183C27.4397 13.3256 27.3506 12.371 27.1851 11.4547L13.9997 11.4545Z" fill="#4285F4"/>
<path d="M6.15371 16.6647L5.12895 17.4491L1.50162 20.2745C3.80525 24.8436 8.52672 28 13.9994 28C17.7793 28 20.9484 26.7527 23.2648 24.6146L18.7212 21.0891C17.4739 21.9291 15.883 22.4382 13.9994 22.4382C10.3594 22.4382 7.26678 19.9819 6.15943 16.6728L6.15371 16.6647Z" fill="#34A853"/>
<path d="M1.50171 7.72546C0.547216 9.60902 0 11.7345 0 13.9999C0 16.2653 0.547216 18.3908 1.50171 20.2744C1.50171 20.287 6.15997 16.6598 6.15997 16.6598C5.87997 15.8198 5.71447 14.929 5.71447 13.9998C5.71447 13.0706 5.87997 12.1797 6.15997 11.3397L1.50171 7.72546Z" fill="#FBBC05"/>
<path d="M13.9997 5.57454C16.0615 5.57454 17.8942 6.28725 19.3579 7.66182L23.3669 3.65277C20.936 1.38736 17.7797 0 13.9997 0C8.527 0 3.80525 3.14363 1.50162 7.72546L6.15974 11.34C7.26694 8.03089 10.3597 5.57454 13.9997 5.57454Z" fill="#EA4335"/>
</svg>
