<svg width="28" height="28" viewBox="0 0 28 28" fill="none" xmlns="http://www.w3.org/2000/svg">
<g clip-path="url(#clip0_118_224)">
<path d="M25.4239 21.8208C25.0005 22.7991 24.4993 23.6995 23.9186 24.5274C23.127 25.656 22.4788 26.4372 21.9794 26.871C21.2051 27.5831 20.3755 27.9478 19.4871 27.9685C18.8493 27.9685 18.0802 27.7871 17.1849 27.4189C16.2867 27.0525 15.4613 26.871 14.7065 26.871C13.9149 26.871 13.066 27.0525 12.1579 27.4189C11.2484 27.7871 10.5158 27.9789 9.95564 27.9979C9.10374 28.0342 8.25461 27.6592 7.40703 26.871C6.86606 26.3992 6.18941 25.5903 5.37882 24.4444C4.50912 23.2208 3.79411 21.8018 3.23395 20.1841C2.63404 18.4367 2.33331 16.7447 2.33331 15.1065C2.33331 13.2301 2.73878 11.6117 3.55093 10.2554C4.1892 9.16606 5.03834 8.30673 6.10109 7.67588C7.16385 7.04504 8.31216 6.72356 9.54879 6.703C10.2254 6.703 11.1128 6.9123 12.2154 7.32364C13.315 7.73637 14.021 7.94567 14.3306 7.94567C14.562 7.94567 15.3463 7.70094 16.6759 7.21303C17.9333 6.76055 18.9945 6.5732 19.8639 6.647C22.2196 6.83712 23.9894 7.76575 25.1664 9.43879C23.0596 10.7153 22.0174 12.5033 22.0381 14.797C22.0571 16.5836 22.7053 18.0703 23.979 19.2508C24.5563 19.7987 25.201 20.2221 25.9182 20.5228C25.7627 20.9739 25.5985 21.406 25.4239 21.8208ZM20.0211 0.560465C20.0211 1.96078 19.5096 3.26826 18.4898 4.47844C17.2593 5.91712 15.7708 6.74845 14.1567 6.61727C14.1361 6.44928 14.1242 6.27247 14.1242 6.08667C14.1242 4.74236 14.7094 3.30369 15.7487 2.12738C16.2675 1.53179 16.9274 1.03657 17.7276 0.641523C18.5261 0.252369 19.2814 0.037159 19.9918 0.000305176C20.0125 0.187506 20.0211 0.374719 20.0211 0.560447V0.560465Z" fill="#222222"/>
</g>
<defs>
<clipPath id="clip0_118_224">
<rect width="28" height="28" fill="white"/>
</clipPath>
</defs>
</svg>
